<mxfile host="app.diagrams.net" modified="2020-04-14T18:34:19.747Z" agent="5.0 (Windows NT 6.1; Win64; x64) AppleWebKit/537.36 (KHTML, like Gecko) Chrome/79.0.3945.79 Safari/537.36" etag="7aI1a8kTzvwQNggMEbWV" version="12.9.12" type="github">
  <diagram id="prtHgNgQTEPvFCAcTncT" name="Page-1">
    <mxGraphModel dx="1157" dy="643" grid="1" gridSize="10" guides="1" tooltips="1" connect="1" arrows="1" fold="1" page="1" pageScale="1" pageWidth="1100" pageHeight="850" math="0" shadow="0">
      <root>
        <mxCell id="0" />
        <mxCell id="1" parent="0" />
        <mxCell id="dNxyNK7c78bLwvsdeMH5-19" value="RENTEC Alternative Investment Purchases" style="swimlane;html=1;childLayout=stackLayout;resizeParent=1;resizeParentMax=0;horizontal=0;startSize=20;horizontalStack=0;" parent="1" vertex="1">
          <mxGeometry x="10" y="10" width="1080" height="550" as="geometry" />
        </mxCell>
        <mxCell id="dNxyNK7c78bLwvsdeMH5-20" value="Client Service Group" style="swimlane;html=1;startSize=20;horizontal=0;fontSize=11;" parent="dNxyNK7c78bLwvsdeMH5-19" vertex="1">
          <mxGeometry x="20" width="1060" height="120" as="geometry" />
        </mxCell>
        <mxCell id="yQS6I_NQXeDQ-WpkQ5g4-4" value="" style="edgeStyle=orthogonalEdgeStyle;rounded=0;orthogonalLoop=1;jettySize=auto;html=1;fontSize=11;" edge="1" parent="dNxyNK7c78bLwvsdeMH5-20" source="yQS6I_NQXeDQ-WpkQ5g4-1" target="yQS6I_NQXeDQ-WpkQ5g4-2">
          <mxGeometry relative="1" as="geometry" />
        </mxCell>
        <mxCell id="yQS6I_NQXeDQ-WpkQ5g4-1" value="" style="shape=mxgraph.bpmn.shape;html=1;verticalLabelPosition=bottom;labelBackgroundColor=#ffffff;verticalAlign=top;align=center;perimeter=ellipsePerimeter;outlineConnect=0;outline=standard;symbol=general;fontSize=11;" vertex="1" parent="dNxyNK7c78bLwvsdeMH5-20">
          <mxGeometry x="25" y="52.5" width="20" height="15" as="geometry" />
        </mxCell>
        <mxCell id="yQS6I_NQXeDQ-WpkQ5g4-2" value="Send subscription document and client signed LOA" style="html=1;whiteSpace=wrap;rounded=1;dropTarget=0;fontSize=11;" vertex="1" parent="dNxyNK7c78bLwvsdeMH5-20">
          <mxGeometry x="65" y="20" width="105" height="80" as="geometry" />
        </mxCell>
        <mxCell id="yQS6I_NQXeDQ-WpkQ5g4-3" value="" style="html=1;shape=plus;outlineConnect=0;" vertex="1" parent="yQS6I_NQXeDQ-WpkQ5g4-2">
          <mxGeometry x="0.5" y="1" width="14" height="14" relative="1" as="geometry">
            <mxPoint x="-7" y="-14" as="offset" />
          </mxGeometry>
        </mxCell>
        <mxCell id="dNxyNK7c78bLwvsdeMH5-21" value="Ops Team" style="swimlane;html=1;startSize=20;horizontal=0;" parent="dNxyNK7c78bLwvsdeMH5-19" vertex="1">
          <mxGeometry x="20" y="120" width="1060" height="310" as="geometry" />
        </mxCell>
        <mxCell id="yQS6I_NQXeDQ-WpkQ5g4-10" value="" style="edgeStyle=orthogonalEdgeStyle;rounded=0;orthogonalLoop=1;jettySize=auto;html=1;fontSize=11;" edge="1" parent="dNxyNK7c78bLwvsdeMH5-21" source="yQS6I_NQXeDQ-WpkQ5g4-5" target="yQS6I_NQXeDQ-WpkQ5g4-8">
          <mxGeometry relative="1" as="geometry" />
        </mxCell>
        <mxCell id="yQS6I_NQXeDQ-WpkQ5g4-20" value="" style="edgeStyle=orthogonalEdgeStyle;rounded=0;orthogonalLoop=1;jettySize=auto;html=1;fontSize=11;" edge="1" parent="dNxyNK7c78bLwvsdeMH5-21" source="yQS6I_NQXeDQ-WpkQ5g4-12" target="yQS6I_NQXeDQ-WpkQ5g4-18">
          <mxGeometry relative="1" as="geometry" />
        </mxCell>
        <mxCell id="yQS6I_NQXeDQ-WpkQ5g4-12" value="Initial purchase: perform necessary checks and update related details" style="html=1;whiteSpace=wrap;rounded=1;dropTarget=0;fontSize=11;" vertex="1" parent="dNxyNK7c78bLwvsdeMH5-21">
          <mxGeometry x="244" y="20" width="105" height="80" as="geometry" />
        </mxCell>
        <mxCell id="yQS6I_NQXeDQ-WpkQ5g4-13" value="" style="html=1;shape=plus;outlineConnect=0;" vertex="1" parent="yQS6I_NQXeDQ-WpkQ5g4-12">
          <mxGeometry x="0.5" y="1" width="14" height="14" relative="1" as="geometry">
            <mxPoint x="-7" y="-14" as="offset" />
          </mxGeometry>
        </mxCell>
        <mxCell id="yQS6I_NQXeDQ-WpkQ5g4-16" style="edgeStyle=orthogonalEdgeStyle;rounded=0;orthogonalLoop=1;jettySize=auto;html=1;exitX=0.5;exitY=0;exitDx=0;exitDy=0;entryX=0;entryY=0.5;entryDx=0;entryDy=0;fontSize=11;" edge="1" parent="dNxyNK7c78bLwvsdeMH5-21" source="yQS6I_NQXeDQ-WpkQ5g4-8" target="yQS6I_NQXeDQ-WpkQ5g4-12">
          <mxGeometry relative="1" as="geometry" />
        </mxCell>
        <mxCell id="yQS6I_NQXeDQ-WpkQ5g4-17" style="edgeStyle=orthogonalEdgeStyle;rounded=0;orthogonalLoop=1;jettySize=auto;html=1;exitX=0.5;exitY=1;exitDx=0;exitDy=0;entryX=0;entryY=0.5;entryDx=0;entryDy=0;fontSize=11;" edge="1" parent="dNxyNK7c78bLwvsdeMH5-21" source="yQS6I_NQXeDQ-WpkQ5g4-8" target="yQS6I_NQXeDQ-WpkQ5g4-14">
          <mxGeometry relative="1" as="geometry" />
        </mxCell>
        <mxCell id="yQS6I_NQXeDQ-WpkQ5g4-18" value="Countersign and complete W9" style="html=1;whiteSpace=wrap;rounded=1;dropTarget=0;fontSize=11;" vertex="1" parent="dNxyNK7c78bLwvsdeMH5-21">
          <mxGeometry x="373" y="20" width="105" height="80" as="geometry" />
        </mxCell>
        <mxCell id="yQS6I_NQXeDQ-WpkQ5g4-19" value="" style="html=1;shape=plus;outlineConnect=0;" vertex="1" parent="yQS6I_NQXeDQ-WpkQ5g4-18">
          <mxGeometry x="0.5" y="1" width="14" height="14" relative="1" as="geometry">
            <mxPoint x="-7" y="-14" as="offset" />
          </mxGeometry>
        </mxCell>
        <mxCell id="yQS6I_NQXeDQ-WpkQ5g4-24" style="rounded=0;orthogonalLoop=1;jettySize=auto;html=1;exitX=0.5;exitY=1;exitDx=0;exitDy=0;entryX=0.5;entryY=0;entryDx=0;entryDy=0;fontSize=11;" edge="1" parent="yQS6I_NQXeDQ-WpkQ5g4-18" source="yQS6I_NQXeDQ-WpkQ5g4-19" target="yQS6I_NQXeDQ-WpkQ5g4-21">
          <mxGeometry relative="1" as="geometry" />
        </mxCell>
        <mxCell id="yQS6I_NQXeDQ-WpkQ5g4-8" value="" style="shape=mxgraph.bpmn.shape;html=1;verticalLabelPosition=bottom;labelBackgroundColor=#ffffff;verticalAlign=top;align=center;perimeter=rhombusPerimeter;background=gateway;outlineConnect=0;outline=none;symbol=exclusiveGw;fontSize=11;" vertex="1" parent="dNxyNK7c78bLwvsdeMH5-21">
          <mxGeometry x="191" y="125" width="50" height="50" as="geometry" />
        </mxCell>
        <mxCell id="yQS6I_NQXeDQ-WpkQ5g4-5" value="Verify received documents for completion and accuracy" style="html=1;whiteSpace=wrap;rounded=1;dropTarget=0;fontSize=11;" vertex="1" parent="dNxyNK7c78bLwvsdeMH5-21">
          <mxGeometry x="65" y="110" width="105" height="80" as="geometry" />
        </mxCell>
        <mxCell id="yQS6I_NQXeDQ-WpkQ5g4-6" value="" style="html=1;shape=plus;outlineConnect=0;" vertex="1" parent="yQS6I_NQXeDQ-WpkQ5g4-5">
          <mxGeometry x="0.5" y="1" width="14" height="14" relative="1" as="geometry">
            <mxPoint x="-7" y="-14" as="offset" />
          </mxGeometry>
        </mxCell>
        <mxCell id="yQS6I_NQXeDQ-WpkQ5g4-22" value="" style="edgeStyle=orthogonalEdgeStyle;rounded=0;orthogonalLoop=1;jettySize=auto;html=1;fontSize=11;" edge="1" parent="dNxyNK7c78bLwvsdeMH5-21" source="yQS6I_NQXeDQ-WpkQ5g4-14" target="yQS6I_NQXeDQ-WpkQ5g4-21">
          <mxGeometry relative="1" as="geometry" />
        </mxCell>
        <mxCell id="yQS6I_NQXeDQ-WpkQ5g4-14" value="Additional purchase: have the DB authorized signor countersign" style="html=1;whiteSpace=wrap;rounded=1;dropTarget=0;fontSize=11;" vertex="1" parent="dNxyNK7c78bLwvsdeMH5-21">
          <mxGeometry x="244" y="200" width="105" height="80" as="geometry" />
        </mxCell>
        <mxCell id="yQS6I_NQXeDQ-WpkQ5g4-15" value="" style="html=1;shape=plus;outlineConnect=0;" vertex="1" parent="yQS6I_NQXeDQ-WpkQ5g4-14">
          <mxGeometry x="0.5" y="1" width="14" height="14" relative="1" as="geometry">
            <mxPoint x="-7" y="-14" as="offset" />
          </mxGeometry>
        </mxCell>
        <mxCell id="yQS6I_NQXeDQ-WpkQ5g4-21" value="" style="shape=mxgraph.bpmn.shape;html=1;verticalLabelPosition=bottom;labelBackgroundColor=#ffffff;verticalAlign=top;align=center;perimeter=rhombusPerimeter;background=gateway;outlineConnect=0;outline=none;symbol=exclusiveGw;fontSize=11;" vertex="1" parent="dNxyNK7c78bLwvsdeMH5-21">
          <mxGeometry x="401" y="215" width="50" height="50" as="geometry" />
        </mxCell>
        <mxCell id="dNxyNK7c78bLwvsdeMH5-22" value="Rentec" style="swimlane;html=1;startSize=20;horizontal=0;" parent="dNxyNK7c78bLwvsdeMH5-19" vertex="1">
          <mxGeometry x="20" y="430" width="1060" height="120" as="geometry" />
        </mxCell>
        <mxCell id="yQS6I_NQXeDQ-WpkQ5g4-7" value="" style="edgeStyle=orthogonalEdgeStyle;rounded=0;orthogonalLoop=1;jettySize=auto;html=1;fontSize=11;" edge="1" parent="dNxyNK7c78bLwvsdeMH5-19" source="yQS6I_NQXeDQ-WpkQ5g4-2" target="yQS6I_NQXeDQ-WpkQ5g4-5">
          <mxGeometry relative="1" as="geometry" />
        </mxCell>
      </root>
    </mxGraphModel>
  </diagram>
</mxfile>
